<svg xmlns="http://www.w3.org/2000/svg" viewBox="0 0 800 600" width="800" height="600"><defs><linearGradient id="b" x1="85.4%" y1="14.6%" x2="14.6%" y2="85.4%"><stop offset="0" stop-color="#F5EAD6"/><stop offset="1" stop-color="#F5ECE0"/></linearGradient></defs><rect width="800" height="600" fill="url(#b)"/><ellipse cx="400" cy="470" rx="140" ry="26" fill="rgba(43,38,34,.12)"/><g>
      <rect x="300" y="180" width="200" height="290" rx="14" fill="#C9A87C"/>
      <rect x="316" y="198" width="168" height="44" rx="8" fill="#F5ECE0"/><circle cx="400" cy="220" r="6" fill="#7A4A32"/><rect x="316" y="252" width="168" height="44" rx="8" fill="#F5ECE0"/><circle cx="400" cy="274" r="6" fill="#7A4A32"/><rect x="316" y="306" width="168" height="44" rx="8" fill="#F5ECE0"/><circle cx="400" cy="328" r="6" fill="#7A4A32"/><rect x="316" y="360" width="168" height="44" rx="8" fill="#F5ECE0"/><circle cx="400" cy="382" r="6" fill="#7A4A32"/><rect x="316" y="414" width="168" height="44" rx="8" fill="#F5ECE0"/><circle cx="400" cy="436" r="6" fill="#7A4A32"/>
      <rect x="298" y="466" width="16" height="34" rx="6" fill="#7A4A32"/><rect x="486" y="466" width="16" height="34" rx="6" fill="#7A4A32"/>
    </g></svg>