<svg xmlns="http://www.w3.org/2000/svg" viewBox="0 0 800 600" width="800" height="600"><defs><linearGradient id="b" x1="85.4%" y1="14.6%" x2="14.6%" y2="85.4%"><stop offset="0" stop-color="#E1EDE6"/><stop offset="1" stop-color="#F7F2EC"/></linearGradient></defs><rect width="800" height="600" fill="url(#b)"/><rect x="150" y="130" width="500" height="20" rx="10" fill="#7A4A32"/>
      <circle cx="160" cy="140" r="14" fill="#C0913E"/><circle cx="640" cy="140" r="14" fill="#C0913E"/>
      <path d="M180 150 q22 200 0 330 q-22 -10 -22 -30 v-270 q0 -20 22 -30z" fill="#A64C2E" opacity="0.7"/><path d="M225 150 q22 200 0 330 q-22 -10 -22 -30 v-270 q0 -20 22 -30z" fill="#C15F3C" opacity="0.85"/><path d="M270 150 q22 200 0 330 q-22 -10 -22 -30 v-270 q0 -20 22 -30z" fill="#A64C2E" opacity="0.7"/><path d="M315 150 q22 200 0 330 q-22 -10 -22 -30 v-270 q0 -20 22 -30z" fill="#C15F3C" opacity="0.85"/><path d="M360 150 q22 200 0 330 q-22 -10 -22 -30 v-270 q0 -20 22 -30z" fill="#A64C2E" opacity="0.7"/><path d="M405 150 q22 200 0 330 q-22 -10 -22 -30 v-270 q0 -20 22 -30z" fill="#C15F3C" opacity="0.85"/><path d="M450 150 q22 200 0 330 q-22 -10 -22 -30 v-270 q0 -20 22 -30z" fill="#A64C2E" opacity="0.7"/><path d="M495 150 q22 200 0 330 q-22 -10 -22 -30 v-270 q0 -20 22 -30z" fill="#C15F3C" opacity="0.85"/><path d="M540 150 q22 200 0 330 q-22 -10 -22 -30 v-270 q0 -20 22 -30z" fill="#A64C2E" opacity="0.7"/>
      <rect x="150" y="470" width="500" height="12" rx="6" fill="rgba(43,38,34,.12)"/></svg>