<svg xmlns="http://www.w3.org/2000/svg" viewBox="0 0 800 600" width="800" height="600"><defs><linearGradient id="b" x1="85.4%" y1="14.6%" x2="14.6%" y2="85.4%"><stop offset="0" stop-color="#EFE5D8"/><stop offset="1" stop-color="#F5ECE0"/></linearGradient></defs><rect width="800" height="600" fill="url(#b)"/><g>
      <rect x="120" y="150" width="560" height="110" rx="10" fill="#4C7A63"/>
      <rect x="140" y="165" width="76" height="80" rx="6" fill="#E1EDE6"/><rect x="230" y="165" width="76" height="80" rx="6" fill="#E1EDE6"/><rect x="320" y="165" width="76" height="80" rx="6" fill="#E1EDE6"/><rect x="410" y="165" width="76" height="80" rx="6" fill="#E1EDE6"/><rect x="500" y="165" width="76" height="80" rx="6" fill="#E1EDE6"/><rect x="590" y="165" width="76" height="80" rx="6" fill="#E1EDE6"/>
      <rect x="120" y="330" width="560" height="26" rx="6" fill="#2B2622"/>
      <rect x="120" y="356" width="560" height="120" rx="8" fill="#C9A87C"/>
      <rect x="140" y="372" width="76" height="88" rx="6" fill="#F5ECE0"/><circle cx="178" cy="416" r="5" fill="#7A4A32"/><rect x="230" y="372" width="76" height="88" rx="6" fill="#F5ECE0"/><circle cx="268" cy="416" r="5" fill="#7A4A32"/><rect x="320" y="372" width="76" height="88" rx="6" fill="#F5ECE0"/><circle cx="358" cy="416" r="5" fill="#7A4A32"/><rect x="410" y="372" width="76" height="88" rx="6" fill="#F5ECE0"/><circle cx="448" cy="416" r="5" fill="#7A4A32"/><rect x="500" y="372" width="76" height="88" rx="6" fill="#F5ECE0"/><circle cx="538" cy="416" r="5" fill="#7A4A32"/><rect x="590" y="372" width="76" height="88" rx="6" fill="#F5ECE0"/><circle cx="628" cy="416" r="5" fill="#7A4A32"/>
      <rect x="330" y="300" width="140" height="30" rx="8" fill="#C15F3C"/>
      <circle cx="250" cy="300" r="14" fill="#C0913E"/><rect x="470" y="285" width="40" height="45" rx="6" fill="#6D8A96"/>
    </g></svg>