<svg xmlns="http://www.w3.org/2000/svg" viewBox="0 0 800 600" width="800" height="600"><defs><linearGradient id="b" x1="85.4%" y1="14.6%" x2="14.6%" y2="85.4%"><stop offset="0" stop-color="#F6E4DB"/><stop offset="1" stop-color="#F5ECE0"/></linearGradient></defs><rect width="800" height="600" fill="url(#b)"/><ellipse cx="400" cy="470" rx="150" ry="26" fill="rgba(43,38,34,.12)"/><g>
      <ellipse cx="400" cy="215" rx="90" ry="110" fill="#FDFBF7"/>
      <ellipse cx="400" cy="215" rx="76" ry="96" fill="#E1EDE6"/>
      <rect x="300" y="330" width="200" height="120" rx="12" fill="#C9A87C"/>
      <rect x="316" y="352" width="70" height="80" rx="8" fill="#F5ECE0"/>
      <rect x="414" y="352" width="70" height="80" rx="8" fill="#F5ECE0"/>
      <circle cx="351" cy="392" r="6" fill="#7A4A32"/><circle cx="449" cy="392" r="6" fill="#7A4A32"/>
      <rect x="312" y="446" width="16" height="42" rx="6" fill="#7A4A32"/><rect x="472" y="446" width="16" height="42" rx="6" fill="#7A4A32"/>
      <rect x="360" y="300" width="80" height="30" rx="8" fill="#C15F3C"/>
      <circle cx="470" cy="250" r="12" fill="#C0913E"/><circle cx="335" cy="250" r="10" fill="#C15F3C"/>
    </g></svg>