<?xml version="1.0" standalone="no"?>
<!DOCTYPE svg PUBLIC "-//W3C//DTD SVG 20010904//EN"
 "http://www.w3.org/TR/2001/REC-SVG-20010904/DTD/svg10.dtd">
<svg version="1.0" xmlns="http://www.w3.org/2000/svg"
 width="753.000000pt" height="627.000000pt" viewBox="0 0 753.000000 627.000000"
 preserveAspectRatio="xMidYMid meet">

<g transform="translate(0.000000,627.000000) scale(0.100000,-0.100000)"
fill="#000000" stroke="none">
<path d="M3759 6043 c-13 -16 -12 -17 4 -4 16 13 21 21 13 21 -2 0 -10 -8 -17
-17z"/>
<path d="M3685 5989 c-76 -62 -88 -79 -17 -24 55 43 80 66 70 65 -2 -1 -25
-19 -53 -41z"/>
<path d="M3555 5884 l-40 -36 43 32 c36 27 49 40 40 40 -2 0 -21 -16 -43 -36z"/>
<path d="M3489 5833 c-13 -16 -12 -17 4 -4 9 7 17 15 17 17 0 8 -8 3 -21 -13z"/>
<path d="M3557 5670 c-279 -219 -798 -634 -1002 -799 -82 -67 -181 -148 -220
-179 -38 -31 -133 -108 -210 -172 -211 -174 -288 -238 -420 -344 -66 -54 -161
-131 -212 -172 l-91 -75 -114 -2 c-62 -2 -122 -7 -132 -12 -11 -5 -2 9 20 30
40 39 23 29 -33 -20 -18 -16 -33 -31 -33 -34 0 -6 72 -7 215 -3 l80 2 350 287
c787 645 1085 886 1625 1314 252 200 398 311 407 310 12 -2 588 -458 873 -691
58 -47 227 -185 375 -307 149 -121 459 -378 690 -571 l420 -352 145 1 c140 0
143 1 100 15 -25 7 -84 14 -131 14 l-86 0 -59 48 c-32 26 -102 83 -155 127
-52 44 -268 224 -480 400 -600 501 -1671 1365 -1690 1365 -2 0 -107 -81 -232
-180z"/>
<path d="M3434 5788 l-19 -23 23 19 c21 18 27 26 19 26 -2 0 -12 -10 -23 -22z"/>
<path d="M3384 5748 l-19 -23 23 19 c21 18 27 26 19 26 -2 0 -12 -10 -23 -22z"/>
<path d="M3334 5708 l-19 -23 23 19 c21 18 27 26 19 26 -2 0 -12 -10 -23 -22z"/>
<path d="M3289 5673 c-13 -16 -12 -17 4 -4 16 13 21 21 13 21 -2 0 -10 -8 -17
-17z"/>
<path d="M3215 5614 l-40 -36 43 32 c36 27 49 40 40 40 -2 0 -21 -16 -43 -36z"/>
<path d="M3120 5539 l-45 -41 42 32 c37 27 61 51 51 50 -2 0 -23 -19 -48 -41z"/>
<path d="M3044 5478 l-19 -23 23 19 c21 18 27 26 19 26 -2 0 -12 -10 -23 -22z"/>
<path d="M1900 5017 c0 -431 1 -458 18 -455 16 3 17 33 20 434 2 417 2 432
-18 455 -19 24 -19 24 -20 -434z"/>
<path d="M2994 5438 l-19 -23 23 19 c21 18 27 26 19 26 -2 0 -12 -10 -23 -22z"/>
<path d="M2939 5393 l-24 -28 28 24 c25 23 32 31 24 31 -2 0 -14 -12 -28 -27z"/>
<path d="M2884 5348 l-19 -23 23 19 c21 18 27 26 19 26 -2 0 -12 -10 -23 -22z"/>
<path d="M2839 5313 c-13 -16 -12 -17 4 -4 16 13 21 21 13 21 -2 0 -10 -8 -17
-17z"/>
<path d="M2779 5263 c-13 -16 -12 -17 4 -4 16 13 21 21 13 21 -2 0 -10 -8 -17
-17z"/>
<path d="M2739 5233 c-13 -16 -12 -17 4 -4 9 7 17 15 17 17 0 8 -8 3 -21 -13z"/>
<path d="M2684 5188 l-19 -23 23 19 c21 18 27 26 19 26 -2 0 -12 -10 -23 -22z"/>
<path d="M2619 5133 c-13 -16 -12 -17 4 -4 16 13 21 21 13 21 -2 0 -10 -8 -17
-17z"/>
<path d="M2574 5098 l-19 -23 23 19 c21 18 27 26 19 26 -2 0 -12 -10 -23 -22z"/>
<path d="M2519 5053 c-13 -16 -12 -17 4 -4 9 7 17 15 17 17 0 8 -8 3 -21 -13z"/>
<path d="M2414 4968 l-19 -23 23 19 c21 18 27 26 19 26 -2 0 -12 -10 -23 -22z"/>
<path d="M3520 4983 c-182 -20 -429 -87 -561 -153 -284 -142 -485 -368 -559
-630 -14 -50 -23 -117 -27 -200 -4 -106 -2 -139 16 -215 66 -274 260 -494 591
-668 170 -90 336 -153 742 -282 619 -197 880 -325 1085 -533 126 -127 222
-297 265 -468 30 -120 33 -385 5 -514 -56 -258 -172 -468 -358 -645 -186 -178
-406 -287 -709 -350 -154 -33 -475 -45 -648 -26 -350 40 -707 153 -1005 317
-53 30 -104 54 -112 54 -15 0 -35 -29 -35 -52 0 -30 444 -286 476 -274 8 3 13
2 9 -3 -11 -18 242 -106 417 -145 550 -122 1157 -63 1591 155 297 148 566 419
693 694 173 378 199 842 67 1195 -129 341 -396 612 -804 812 -155 76 -344 150
-665 258 -626 212 -789 291 -960 464 -159 161 -217 363 -165 568 34 133 109
255 203 329 26 20 45 39 42 43 -2 3 -1 4 2 2 3 -3 25 7 48 21 67 43 155 79
251 104 78 20 114 23 270 24 112 0 203 -5 240 -13 475 -104 783 -399 925 -887
25 -87 27 -90 58 -93 l32 -3 -1 68 c-1 37 -6 223 -12 413 l-12 345 -115 57
c-219 109 -555 201 -824 227 -102 10 -378 13 -456 4z"/>
<path d="M1829 4493 l-24 -28 30 25 c17 14 32 26 34 28 2 1 0 2 -6 2 -5 0 -20
-12 -34 -27z"/>
<path d="M1774 4448 l-19 -23 23 19 c21 18 27 26 19 26 -2 0 -12 -10 -23 -22z"/>
<path d="M1714 4398 l-19 -23 23 19 c21 18 27 26 19 26 -2 0 -12 -10 -23 -22z"/>
<path d="M1610 4314 c-95 -80 -107 -97 -17 -24 68 56 96 81 85 80 -2 -1 -32
-26 -68 -56z"/>
<path d="M1440 4174 c-77 -65 -112 -100 -55 -56 51 40 131 111 125 111 -3 0
-34 -25 -70 -55z"/>
<path d="M1304 4058 l-29 -33 33 29 c30 28 37 36 29 36 -2 0 -16 -15 -33 -32z"/>
<path d="M5818 2775 c2 -704 6 -1282 8 -1284 6 -7 2 1623 -6 2109 -4 250 -5
-121 -2 -825z"/>
<path d="M1244 4008 l-19 -23 23 19 c12 11 22 21 22 23 0 8 -8 2 -26 -19z"/>
<path d="M1650 2776 c0 -813 4 -1239 11 -1308 31 -287 147 -531 324 -679 45
-38 33 -20 -38 60 -56 63 -158 231 -188 311 -39 104 -69 235 -79 350 -6 69
-10 580 -10 1287 0 770 -3 1174 -10 1178 -7 4 -10 -398 -10 -1199z"/>
<path d="M3354 2627 c3 -10 6 -120 6 -243 0 -123 3 -224 8 -224 12 0 5 446 -8
467 -11 17 -11 17 -6 0z"/>
<path d="M3102 2406 c-1 -125 2 -206 7 -200 5 5 6 93 2 209 l-8 200 -1 -209z"/>
<path d="M3610 2413 c0 -156 3 -203 13 -203 9 0 11 35 6 157 -4 87 -4 170 -2
185 3 14 0 34 -6 45 -8 13 -10 -35 -11 -184z"/>
<path d="M2834 2587 c3 -10 6 -105 6 -209 0 -105 3 -189 6 -186 11 12 6 377
-6 395 -11 17 -11 17 -6 0z"/>
<path d="M3851 2383 c-1 -118 3 -194 9 -198 12 -7 12 313 0 360 -4 17 -8 -52
-9 -162z"/>
<path d="M2160 1799 c0 -392 2 -710 4 -708 2 2 33 68 70 145 l66 142 -1 118
-2 119 -8 -75 c-8 -66 -17 -119 -30 -170 -2 -8 -10 -21 -17 -29 -8 -8 -12 -25
-9 -38 2 -12 0 -23 -5 -23 -5 0 -7 -4 -3 -9 8 -14 -16 -61 -28 -54 -7 4 -8 -1
-3 -13 5 -12 4 -16 -3 -9 -9 10 -16 258 -11 420 2 67 4 74 10 40 7 -39 7 -39
8 15 1 39 -1 51 -8 40 -6 -10 -9 46 -9 165 1 105 5 165 9 145 5 -23 7 4 7 75
0 91 -2 100 -7 50 -6 -55 -7 -52 -7 35 -1 61 2 86 7 70 5 -16 8 15 8 85 0 70
-3 103 -8 90 -6 -15 -9 -6 -9 33 -1 28 -6 52 -11 52 -7 0 -10 -238 -10 -711z
m21 -642 c-10 -9 -11 -8 -5 6 3 10 9 15 12 12 3 -3 0 -11 -7 -18z"/>
<path d="M2569 2418 c-3 -155 -1 -199 5 -205 3 -4 6 62 6 145 0 84 -2 152 -5
152 -3 0 -6 -42 -6 -92z"/>
<path d="M4085 2354 c0 -85 3 -154 8 -154 9 0 9 281 -1 297 -4 6 -7 -58 -7
-143z"/>
<path d="M4302 2207 l-2 -233 34 -119 c31 -111 35 -120 62 -127 15 -4 30 -5
32 -3 2 2 -7 7 -21 10 -29 8 -49 53 -51 116 0 20 -4 35 -7 33 -13 -7 -20 130
-17 328 3 165 1 200 -12 212 -13 14 -15 -11 -18 -217z"/>
<path d="M3435 2201 c-10 -18 -7 -123 5 -155 5 -15 10 -42 10 -61 0 -18 7 -60
15 -93 15 -57 17 -144 4 -136 -4 2 -15 33 -24 69 -14 50 -15 69 -7 77 7 7 12
17 12 23 0 5 -7 2 -15 -9 -14 -18 -14 -18 -14 0 1 11 -4 33 -9 49 -10 28 -10
29 -11 5 -1 -26 6 -55 40 -172 l20 -67 37 3 c20 2 61 4 91 5 l53 1 -7 66 c-11
101 -74 304 -95 304 -14 0 -3 -69 16 -97 9 -15 21 -43 25 -62 14 -57 22 -191
13 -192 -5 0 -18 -2 -30 -4 -12 -3 -21 1 -21 8 0 7 -6 46 -13 87 -7 41 -14
102 -15 135 -1 44 -11 83 -37 144 -21 52 -38 79 -43 72z"/>
<path d="M2411 2173 c-9 -19 -12 -73 -10 -168 3 -200 0 -258 -10 -265 -31 -19
-81 -64 -81 -73 0 -5 8 -3 18 6 20 18 121 47 164 47 27 0 28 1 28 58 0 31 3
68 5 82 5 22 4 22 -4 5 -8 -17 -10 -16 -10 11 -1 17 -4 46 -8 64 -4 23 -3 31
5 26 12 -7 2 35 -16 70 -5 10 -19 52 -31 92 -12 39 -26 72 -30 72 -4 0 -13
-12 -20 -27z"/>
<path d="M2536 2041 c3 -34 9 -71 14 -81 12 -22 31 -131 37 -212 4 -52 3 -58
-21 -73 -14 -9 -30 -14 -36 -10 -5 3 -10 1 -10 -4 0 -12 32 -14 79 -5 l31 7 0
72 c0 83 -36 238 -73 318 l-25 52 4 -64z"/>
<path d="M3392 2025 c0 -16 2 -22 5 -12 2 9 2 23 0 30 -3 6 -5 -1 -5 -18z"/>
<path d="M2192 1875 c0 -16 2 -22 5 -12 2 9 2 23 0 30 -3 6 -5 -1 -5 -18z"/>
<path d="M5813 1435 c0 -27 2 -38 4 -22 2 15 2 37 0 50 -2 12 -4 0 -4 -28z"/>
<path d="M2193 1395 c0 -38 2 -53 4 -32 2 20 2 52 0 70 -2 17 -4 1 -4 -38z"/>
<path d="M5802 1350 c0 -14 2 -19 5 -12 2 6 2 18 0 25 -3 6 -5 1 -5 -13z"/>
<path d="M4750 1330 c25 -5 8 -8 -65 -10 -55 -1 -104 -2 -109 -1 -5 1 -39 4
-75 7 -50 4 -62 3 -51 -5 11 -9 -14 -10 -100 -7 -77 3 -100 2 -70 -4 38 -6 31
-8 -42 -6 -47 0 -84 -2 -81 -6 2 -5 -11 -8 -29 -7 -31 1 -32 1 -8 9 38 12 -47
12 -140 -1 -41 -5 -97 -10 -125 -10 -44 -1 -47 -2 -20 -9 26 -7 24 -8 -20 -8
-27 0 -57 -2 -65 -5 -29 -11 -211 -27 -235 -21 -14 3 -25 2 -25 -4 0 -5 -18
-12 -41 -16 -49 -8 -127 -46 -153 -75 -10 -11 -24 -18 -30 -14 -6 3 -8 3 -4
-2 4 -4 1 -13 -6 -21 -18 -17 -68 -170 -64 -192 3 -9 12 10 22 43 52 176 104
223 281 254 222 39 772 77 1250 86 143 3 259 8 257 12 -2 5 -14 7 -28 6 -16
-1 -22 2 -18 10 5 9 4 9 -6 0 -8 -7 -22 -8 -43 -2 -18 5 -68 8 -112 8 -62 -1
-72 -3 -45 -9z"/>
<path d="M2820 1309 c-7 -11 -10 -23 -7 -25 2 -2 9 7 15 21 14 30 7 33 -8 4z"/>
<path d="M2722 1048 c-11 -40 -19 -74 -17 -76 2 -2 13 28 25 68 12 40 20 74
17 76 -2 2 -13 -28 -25 -68z"/>
<path d="M2170 896 c0 -112 1 -115 26 -135 15 -12 35 -21 45 -21 16 0 18 12
21 116 3 115 3 116 -22 129 -72 36 -70 39 -70 -89z m69 70 c18 -11 -4 -160
-22 -149 -7 3 -1 -7 13 -23 17 -20 19 -23 4 -12 -13 12 -24 14 -30 8 -6 -6
-11 -3 -13 10 -3 25 -4 146 0 164 2 13 28 14 48 2z"/>
<path d="M2480 946 c0 -2 9 -6 20 -9 11 -3 18 -1 14 4 -5 9 -34 13 -34 5z"/>
<path d="M5660 930 c-6 -11 -8 -20 -6 -20 3 0 10 9 16 20 6 11 8 20 6 20 -3 0
-10 -9 -16 -20z"/>
<path d="M2340 916 c0 -3 9 -10 20 -16 11 -6 20 -8 20 -6 0 3 -9 10 -20 16
-11 6 -20 8 -20 6z"/>
<path d="M2575 900 c17 -11 35 -20 40 -20 6 0 -3 9 -20 20 -16 11 -34 20 -40
20 -5 0 4 -9 20 -20z"/>
<path d="M2681 913 c-1 -6 -4 -20 -7 -30 -5 -17 -5 -17 6 0 6 10 9 23 6 30 -3
9 -5 9 -5 0z"/>
<path d="M3171 834 c0 -11 3 -14 6 -6 3 7 2 16 -1 19 -3 4 -6 -2 -5 -13z"/>
<path d="M5577 802 c-19 -20 -23 -37 -7 -27 10 6 33 45 27 45 -2 0 -11 -8 -20
-18z"/>
<path d="M3157 797 c-4 -10 -7 -33 -6 -50 l1 -32 9 33 c12 40 8 79 -4 49z"/>
<path d="M2634 759 c-7 -11 12 -29 32 -29 6 0 64 -32 130 -71 65 -39 133 -78
149 -86 l30 -15 -35 36 c-19 21 -70 55 -113 76 -43 21 -85 44 -92 50 -8 7 -19
9 -25 5 -5 -3 -10 -1 -10 5 0 6 -4 8 -10 5 -5 -3 -10 -2 -10 2 0 15 -38 34
-46 22z"/>
<path d="M3141 694 c0 -11 3 -14 6 -6 3 7 2 16 -1 19 -3 4 -6 -2 -5 -13z"/>
<path d="M3102 541 c-15 -48 -30 -52 -56 -12 -14 20 -25 27 -40 24 -17 -4 -18
-3 -6 6 9 7 10 11 3 11 -27 0 -20 -18 19 -48 54 -42 73 -41 88 3 6 19 10 40 8
47 -2 6 -10 -8 -16 -31z"/>
<path d="M3340 546 c0 -2 7 -6 15 -10 8 -3 15 -1 15 4 0 6 -7 10 -15 10 -8 0
-15 -2 -15 -4z"/>
<path d="M2638 173 c6 -2 18 -2 25 0 6 3 1 5 -13 5 -14 0 -19 -2 -12 -5z"/>
<path d="M2803 173 c9 -2 23 -2 30 0 6 3 -1 5 -18 5 -16 0 -22 -2 -12 -5z"/>
<path d="M4443 172 c-6 -4 36 -6 95 -4 152 4 166 9 32 10 -63 1 -120 -2 -127
-6z"/>
<path d="M2147 163 c18 -2 50 -2 70 0 21 2 7 4 -32 4 -38 0 -55 -2 -38 -4z"/>
<path d="M4998 163 c56 -2 148 -2 205 0 56 1 10 3 -103 3 -113 0 -159 -2 -102
-3z"/>
<path d="M1828 153 c23 -2 59 -2 80 0 20 2 1 4 -43 4 -44 0 -61 -2 -37 -4z"/>
<path d="M5422 153 c37 -2 100 -2 140 0 40 1 10 3 -67 3 -77 0 -110 -1 -73 -3z"/>
<path d="M1453 143 c37 -2 96 -2 130 0 34 2 4 3 -68 3 -71 0 -99 -1 -62 -3z"/>
<path d="M5818 143 c29 -2 74 -2 100 0 26 2 2 3 -53 3 -55 0 -76 -1 -47 -3z"/>
<path d="M1218 133 c6 -2 18 -2 25 0 6 3 1 5 -13 5 -14 0 -19 -2 -12 -5z"/>
<path d="M6098 133 c23 -2 59 -2 80 0 20 2 1 4 -43 4 -44 0 -61 -2 -37 -4z"/>
</g>
</svg>
