<?xml version="1.0" standalone="no"?>
<!DOCTYPE svg PUBLIC "-//W3C//DTD SVG 20010904//EN"
 "http://www.w3.org/TR/2001/REC-SVG-20010904/DTD/svg10.dtd">
<svg version="1.0" xmlns="http://www.w3.org/2000/svg"
 width="1254.000000pt" height="1254.000000pt" viewBox="0 0 1254.000000 1254.000000"
 preserveAspectRatio="xMidYMid meet">

<g transform="translate(0.000000,1254.000000) scale(0.100000,-0.100000)"
fill="#000000" stroke="none">
<path d="M6259 10813 c-13 -16 -12 -17 4 -4 16 13 21 21 13 21 -2 0 -10 -8
-17 -17z"/>
<path d="M6185 10759 c-76 -62 -88 -79 -17 -24 55 43 80 66 70 65 -2 -1 -25
-19 -53 -41z"/>
<path d="M6055 10654 l-40 -36 43 32 c36 27 49 40 40 40 -2 0 -21 -16 -43 -36z"/>
<path d="M5989 10603 c-13 -16 -12 -17 4 -4 16 13 21 21 13 21 -2 0 -10 -8
-17 -17z"/>
<path d="M6057 10440 c-279 -219 -798 -634 -1002 -799 -82 -67 -181 -148 -220
-179 -38 -31 -133 -108 -210 -172 -211 -174 -288 -238 -420 -344 -66 -54 -161
-131 -212 -172 l-91 -75 -114 -2 c-62 -2 -122 -7 -132 -12 -11 -5 -2 9 20 30
40 39 23 29 -33 -20 -18 -16 -33 -31 -33 -34 0 -6 72 -7 215 -3 l80 2 350 287
c787 645 1085 886 1625 1314 252 200 398 311 407 310 12 -2 588 -458 873 -691
58 -47 227 -185 375 -307 149 -121 459 -378 690 -571 l420 -352 145 1 c140 0
143 1 100 15 -25 7 -84 14 -131 14 l-86 0 -59 48 c-32 26 -102 83 -155 127
-52 44 -268 224 -480 400 -600 501 -1671 1365 -1690 1365 -2 0 -107 -81 -232
-180z"/>
<path d="M5934 10558 l-19 -23 23 19 c21 18 27 26 19 26 -2 0 -12 -10 -23 -22z"/>
<path d="M5884 10518 l-19 -23 23 19 c21 18 27 26 19 26 -2 0 -12 -10 -23 -22z"/>
<path d="M5834 10478 l-19 -23 23 19 c21 18 27 26 19 26 -2 0 -12 -10 -23 -22z"/>
<path d="M5789 10443 c-13 -16 -12 -17 4 -4 16 13 21 21 13 21 -2 0 -10 -8
-17 -17z"/>
<path d="M5715 10384 l-40 -36 43 32 c36 27 49 40 40 40 -2 0 -21 -16 -43 -36z"/>
<path d="M5620 10309 l-45 -41 42 32 c37 27 61 51 51 50 -2 0 -23 -19 -48 -41z"/>
<path d="M5544 10248 l-19 -23 23 19 c21 18 27 26 19 26 -2 0 -12 -10 -23 -22z"/>
<path d="M4400 9787 c0 -431 1 -458 18 -455 16 3 17 33 20 434 2 417 2 432
-18 455 -19 24 -19 24 -20 -434z"/>
<path d="M5494 10208 l-19 -23 23 19 c21 18 27 26 19 26 -2 0 -12 -10 -23 -22z"/>
<path d="M5439 10163 l-24 -28 28 24 c15 14 27 26 27 28 0 8 -8 1 -31 -24z"/>
<path d="M5384 10118 l-19 -23 23 19 c21 18 27 26 19 26 -2 0 -12 -10 -23 -22z"/>
<path d="M5339 10083 c-13 -16 -12 -17 4 -4 9 7 17 15 17 17 0 8 -8 3 -21 -13z"/>
<path d="M5279 10033 c-13 -16 -12 -17 4 -4 9 7 17 15 17 17 0 8 -8 3 -21 -13z"/>
<path d="M5239 10003 c-13 -16 -12 -17 4 -4 9 7 17 15 17 17 0 8 -8 3 -21 -13z"/>
<path d="M5184 9958 l-19 -23 23 19 c12 11 22 21 22 23 0 8 -8 2 -26 -19z"/>
<path d="M5119 9903 c-13 -16 -12 -17 4 -4 9 7 17 15 17 17 0 8 -8 3 -21 -13z"/>
<path d="M5074 9868 l-19 -23 23 19 c12 11 22 21 22 23 0 8 -8 2 -26 -19z"/>
<path d="M5019 9823 c-13 -16 -12 -17 4 -4 9 7 17 15 17 17 0 8 -8 3 -21 -13z"/>
<path d="M4914 9738 l-19 -23 23 19 c21 18 27 26 19 26 -2 0 -12 -10 -23 -22z"/>
<path d="M6020 9753 c-182 -20 -429 -87 -561 -153 -284 -142 -485 -368 -559
-630 -14 -50 -23 -117 -27 -200 -4 -106 -2 -139 16 -215 66 -274 260 -494 591
-668 170 -90 336 -153 742 -282 619 -197 880 -325 1085 -533 126 -127 222
-297 265 -468 30 -120 33 -385 5 -514 -56 -258 -172 -468 -358 -645 -186 -178
-406 -287 -709 -350 -154 -33 -475 -45 -648 -26 -350 40 -707 153 -1005 317
-53 30 -104 54 -112 54 -15 0 -35 -29 -35 -52 0 -30 444 -286 476 -274 8 3 13
2 9 -3 -11 -18 242 -106 417 -145 550 -122 1157 -63 1591 155 297 148 566 419
693 694 173 378 199 842 67 1195 -129 341 -396 612 -804 812 -155 76 -344 150
-665 258 -626 212 -789 291 -960 464 -159 161 -217 363 -165 568 34 133 109
255 203 329 26 20 45 39 42 43 -2 3 -1 4 2 2 3 -3 25 7 48 21 67 43 155 79
251 104 78 20 114 23 270 24 112 0 203 -5 240 -13 475 -104 783 -399 925 -887
25 -87 27 -90 58 -93 l32 -3 -1 68 c-1 37 -6 223 -12 413 l-12 345 -115 57
c-219 109 -555 201 -824 227 -102 10 -378 13 -456 4z"/>
<path d="M4329 9263 l-24 -28 30 25 c17 14 32 26 34 28 2 1 0 2 -6 2 -5 0 -20
-12 -34 -27z"/>
<path d="M4274 9218 l-19 -23 23 19 c21 18 27 26 19 26 -2 0 -12 -10 -23 -22z"/>
<path d="M4214 9168 l-19 -23 23 19 c12 11 22 21 22 23 0 8 -8 2 -26 -19z"/>
<path d="M4110 9084 c-95 -80 -107 -97 -17 -24 68 56 96 81 85 80 -2 -1 -32
-26 -68 -56z"/>
<path d="M3940 8944 c-77 -65 -112 -100 -55 -56 51 40 131 111 125 111 -3 0
-34 -25 -70 -55z"/>
<path d="M3804 8828 l-29 -33 33 29 c17 17 32 31 32 33 0 8 -8 1 -36 -29z"/>
<path d="M8318 7545 c2 -704 6 -1282 8 -1284 6 -7 2 1623 -6 2109 -4 250 -5
-121 -2 -825z"/>
<path d="M3744 8778 l-19 -23 23 19 c21 18 27 26 19 26 -2 0 -12 -10 -23 -22z"/>
<path d="M4150 7546 c0 -813 4 -1239 11 -1308 31 -287 147 -531 324 -679 45
-38 33 -20 -38 60 -56 63 -158 231 -188 311 -39 104 -69 235 -79 350 -6 69
-10 580 -10 1287 0 770 -3 1174 -10 1178 -7 4 -10 -398 -10 -1199z"/>
<path d="M5854 7397 c3 -10 6 -120 6 -243 0 -123 3 -224 8 -224 12 0 5 446 -8
467 -11 17 -11 17 -6 0z"/>
<path d="M5602 7176 c-1 -125 2 -206 7 -200 5 5 6 93 2 209 l-8 200 -1 -209z"/>
<path d="M6110 7183 c0 -156 3 -203 13 -203 9 0 11 35 6 157 -4 87 -4 170 -2
185 3 14 0 34 -6 45 -8 13 -10 -35 -11 -184z"/>
<path d="M5334 7357 c3 -10 6 -105 6 -209 0 -105 3 -189 6 -186 11 12 6 377
-6 395 -11 17 -11 17 -6 0z"/>
<path d="M6351 7153 c-1 -118 3 -194 9 -198 12 -7 12 313 0 360 -4 17 -8 -52
-9 -162z"/>
<path d="M4660 6569 c0 -392 2 -710 4 -708 2 2 33 68 70 145 l66 142 -1 118
-2 119 -8 -75 c-8 -66 -17 -119 -30 -170 -2 -8 -10 -21 -17 -29 -8 -8 -12 -25
-9 -38 2 -12 0 -23 -5 -23 -5 0 -7 -4 -3 -9 8 -14 -16 -61 -28 -54 -7 4 -8 -1
-3 -13 5 -12 4 -16 -3 -9 -9 10 -16 258 -11 420 2 67 4 74 10 40 7 -39 7 -39
8 15 1 39 -1 51 -8 40 -6 -10 -9 46 -9 165 1 105 5 165 9 145 5 -23 7 4 7 75
0 91 -2 100 -7 50 -6 -55 -7 -52 -7 35 -1 61 2 86 7 70 5 -16 8 15 8 85 0 70
-3 103 -8 90 -6 -15 -9 -6 -9 33 -1 28 -6 52 -11 52 -7 0 -10 -238 -10 -711z
m21 -642 c-10 -9 -11 -8 -5 6 3 10 9 15 12 12 3 -3 0 -11 -7 -18z"/>
<path d="M5069 7188 c-3 -155 -1 -199 5 -205 3 -4 6 62 6 145 0 84 -2 152 -5
152 -3 0 -6 -42 -6 -92z"/>
<path d="M6585 7124 c0 -85 3 -154 8 -154 9 0 9 281 -1 297 -4 6 -7 -58 -7
-143z"/>
<path d="M6802 6977 l-2 -233 34 -119 c31 -111 35 -120 62 -127 15 -4 30 -5
32 -3 2 2 -7 7 -21 10 -29 8 -49 53 -51 116 0 20 -4 35 -7 33 -13 -7 -20 130
-17 328 3 165 1 200 -12 212 -13 14 -15 -11 -18 -217z"/>
<path d="M5935 6971 c-10 -18 -7 -123 5 -155 5 -15 10 -42 10 -61 0 -18 7 -60
15 -93 15 -57 17 -144 4 -136 -4 2 -15 33 -24 69 -14 50 -15 69 -7 77 7 7 12
17 12 23 0 5 -7 2 -15 -9 -14 -18 -14 -18 -14 0 1 11 -4 33 -9 49 -10 28 -10
29 -11 5 -1 -26 6 -55 40 -172 l20 -67 37 3 c20 2 61 4 91 5 l53 1 -7 66 c-11
101 -74 304 -95 304 -14 0 -3 -69 16 -97 9 -15 21 -43 25 -62 14 -57 22 -191
13 -192 -5 0 -18 -2 -30 -4 -12 -3 -21 1 -21 8 0 7 -6 46 -13 87 -7 41 -14
102 -15 135 -1 44 -11 83 -37 144 -21 52 -38 79 -43 72z"/>
<path d="M4911 6943 c-9 -19 -12 -73 -10 -168 3 -200 0 -258 -10 -265 -31 -19
-81 -64 -81 -73 0 -5 8 -3 18 6 20 18 121 47 164 47 27 0 28 1 28 58 0 31 3
68 5 82 5 22 4 22 -4 5 -8 -17 -10 -16 -10 11 -1 17 -4 46 -8 64 -4 23 -3 31
5 26 12 -7 2 35 -16 70 -5 10 -19 52 -31 92 -12 39 -26 72 -30 72 -4 0 -13
-12 -20 -27z"/>
<path d="M5036 6811 c3 -34 9 -71 14 -81 12 -22 31 -131 37 -212 4 -52 3 -58
-21 -73 -14 -9 -30 -14 -36 -10 -5 3 -10 1 -10 -4 0 -12 32 -14 79 -5 l31 7 0
72 c0 83 -36 238 -73 318 l-25 52 4 -64z"/>
<path d="M5892 6795 c0 -16 2 -22 5 -12 2 9 2 23 0 30 -3 6 -5 -1 -5 -18z"/>
<path d="M4692 6645 c0 -16 2 -22 5 -12 2 9 2 23 0 30 -3 6 -5 -1 -5 -18z"/>
<path d="M8313 6205 c0 -27 2 -38 4 -22 2 15 2 37 0 50 -2 12 -4 0 -4 -28z"/>
<path d="M4693 6165 c0 -38 2 -53 4 -32 2 20 2 52 0 70 -2 17 -4 1 -4 -38z"/>
<path d="M8302 6120 c0 -14 2 -19 5 -12 2 6 2 18 0 25 -3 6 -5 1 -5 -13z"/>
<path d="M7250 6100 c25 -5 8 -8 -65 -10 -55 -1 -104 -2 -109 -1 -5 1 -39 4
-75 7 -50 4 -62 3 -51 -5 11 -9 -14 -10 -100 -7 -77 3 -100 2 -70 -4 38 -6 31
-8 -42 -6 -47 0 -84 -2 -81 -6 2 -5 -11 -8 -29 -7 -31 1 -32 1 -8 9 38 12 -47
12 -140 -1 -41 -5 -97 -10 -125 -10 -44 -1 -47 -2 -20 -9 26 -7 24 -8 -20 -8
-27 0 -57 -2 -65 -5 -29 -11 -211 -27 -235 -21 -14 3 -25 2 -25 -4 0 -5 -18
-12 -41 -16 -49 -8 -127 -46 -153 -75 -10 -11 -24 -18 -30 -14 -6 3 -8 3 -4
-2 4 -4 1 -13 -6 -21 -18 -17 -68 -170 -64 -192 3 -9 12 10 22 43 52 176 104
223 281 254 222 39 772 77 1250 86 143 3 259 8 257 12 -2 5 -14 7 -28 6 -16
-1 -22 2 -18 10 5 9 4 9 -6 0 -8 -7 -22 -8 -43 -2 -18 5 -68 8 -112 8 -62 -1
-72 -3 -45 -9z"/>
<path d="M5320 6079 c-7 -11 -10 -23 -7 -25 2 -2 9 7 15 21 14 30 7 33 -8 4z"/>
<path d="M5222 5818 c-11 -40 -19 -74 -17 -76 2 -2 13 28 25 68 12 40 20 74
17 76 -2 2 -13 -28 -25 -68z"/>
<path d="M4670 5666 c0 -112 1 -115 26 -135 15 -12 35 -21 45 -21 16 0 18 12
21 116 3 115 3 116 -22 129 -72 36 -70 39 -70 -89z m69 70 c18 -11 -4 -160
-22 -149 -7 3 -1 -7 13 -23 17 -20 19 -23 4 -12 -13 12 -24 14 -30 8 -6 -6
-11 -3 -13 10 -3 25 -4 146 0 164 2 13 28 14 48 2z"/>
<path d="M4980 5716 c0 -2 9 -6 20 -9 11 -3 18 -1 14 4 -5 9 -34 13 -34 5z"/>
<path d="M8160 5700 c-6 -11 -8 -20 -6 -20 3 0 10 9 16 20 6 11 8 20 6 20 -3
0 -10 -9 -16 -20z"/>
<path d="M4840 5686 c0 -3 9 -10 20 -16 11 -6 20 -8 20 -6 0 3 -9 10 -20 16
-11 6 -20 8 -20 6z"/>
<path d="M5075 5670 c17 -11 35 -20 40 -20 6 0 -3 9 -20 20 -16 11 -34 20 -40
20 -5 0 4 -9 20 -20z"/>
<path d="M5181 5683 c-1 -6 -4 -20 -7 -30 -5 -17 -5 -17 6 0 6 10 9 23 6 30
-3 9 -5 9 -5 0z"/>
<path d="M5671 5604 c0 -11 3 -14 6 -6 3 7 2 16 -1 19 -3 4 -6 -2 -5 -13z"/>
<path d="M8077 5572 c-19 -20 -23 -37 -7 -27 10 6 33 45 27 45 -2 0 -11 -8
-20 -18z"/>
<path d="M5657 5567 c-4 -10 -7 -33 -6 -50 l1 -32 9 33 c12 40 8 79 -4 49z"/>
<path d="M5134 5529 c-7 -11 12 -29 32 -29 6 0 64 -32 130 -71 65 -39 133 -78
149 -86 l30 -15 -35 36 c-19 21 -70 55 -113 76 -43 21 -85 44 -92 50 -8 7 -19
9 -25 5 -5 -3 -10 -1 -10 5 0 6 -4 8 -10 5 -5 -3 -10 -2 -10 2 0 15 -38 34
-46 22z"/>
<path d="M5641 5464 c0 -11 3 -14 6 -6 3 7 2 16 -1 19 -3 4 -6 -2 -5 -13z"/>
<path d="M5602 5311 c-15 -48 -30 -52 -56 -12 -14 20 -25 27 -40 24 -17 -4
-18 -3 -6 6 9 7 10 11 3 11 -27 0 -20 -18 19 -48 54 -42 73 -41 88 3 6 19 10
40 8 47 -2 6 -10 -8 -16 -31z"/>
<path d="M5840 5316 c0 -2 7 -6 15 -10 8 -3 15 -1 15 4 0 6 -7 10 -15 10 -8 0
-15 -2 -15 -4z"/>
<path d="M5138 4943 c6 -2 18 -2 25 0 6 3 1 5 -13 5 -14 0 -19 -2 -12 -5z"/>
<path d="M5303 4943 c9 -2 23 -2 30 0 6 3 -1 5 -18 5 -16 0 -22 -2 -12 -5z"/>
<path d="M6943 4942 c-6 -4 36 -6 95 -4 152 4 166 9 32 10 -63 1 -120 -2 -127
-6z"/>
<path d="M4647 4933 c18 -2 50 -2 70 0 21 2 7 4 -32 4 -38 0 -55 -2 -38 -4z"/>
<path d="M7498 4933 c56 -2 148 -2 205 0 56 1 10 3 -103 3 -113 0 -159 -2
-102 -3z"/>
<path d="M4328 4923 c23 -2 59 -2 80 0 20 2 1 4 -43 4 -44 0 -61 -2 -37 -4z"/>
<path d="M7922 4923 c37 -2 100 -2 140 0 40 1 10 3 -67 3 -77 0 -110 -1 -73
-3z"/>
<path d="M3953 4913 c37 -2 96 -2 130 0 34 2 4 3 -68 3 -71 0 -99 -1 -62 -3z"/>
<path d="M8318 4913 c29 -2 74 -2 100 0 26 2 2 3 -53 3 -55 0 -76 -1 -47 -3z"/>
<path d="M3718 4903 c6 -2 18 -2 25 0 6 3 1 5 -13 5 -14 0 -19 -2 -12 -5z"/>
<path d="M8598 4903 c23 -2 59 -2 80 0 20 2 1 4 -43 4 -44 0 -61 -2 -37 -4z"/>
<path d="M1710 4624 c-144 -31 -266 -120 -318 -232 -24 -50 -27 -69 -27 -157
0 -88 3 -107 27 -158 57 -121 178 -204 438 -301 271 -102 375 -169 427 -274
93 -190 -49 -394 -286 -409 -220 -15 -425 112 -532 330 -33 67 -59 87 -59 45
0 -13 5 -88 12 -167 l13 -144 60 -28 c258 -116 568 -128 757 -27 78 42 169
140 199 215 20 47 24 76 24 158 0 93 -2 105 -33 167 -63 128 -166 199 -462
318 -209 84 -285 125 -347 186 -38 38 -55 65 -67 104 -20 66 -20 83 -1 146 31
106 133 177 271 190 200 19 384 -98 455 -288 12 -32 26 -58 30 -58 6 0 8 66 7
153 l-3 152 -90 34 c-49 18 -124 39 -165 47 -96 17 -247 16 -330 -2z"/>
<path d="M6010 4526 c0 -8 15 -17 38 -21 51 -9 81 -31 98 -70 21 -50 21 -1209
0 -1259 -17 -41 -49 -65 -98 -73 -23 -3 -38 -11 -38 -19 0 -12 45 -14 254 -14
160 0 257 4 261 10 3 6 0 12 -7 14 -80 21 -103 33 -123 66 -19 33 -20 51 -20
330 l0 295 385 0 385 0 0 -295 c0 -369 4 -357 -144 -397 -9 -2 -11 -7 -4 -14
13 -13 503 -8 504 6 0 6 -14 13 -32 17 -48 9 -79 29 -97 63 -15 27 -17 91 -20
604 -4 698 -4 697 95 730 26 9 49 21 51 26 1 6 -88 10 -248 10 -240 0 -301 -8
-220 -27 113 -28 114 -32 118 -380 l3 -288 -391 0 -391 0 3 288 c3 245 5 291
20 317 17 33 43 50 96 62 17 4 33 13 35 18 1 6 -90 11 -255 13 -217 2 -258 0
-258 -12z"/>
<path d="M2982 3934 c-212 -57 -351 -285 -313 -515 16 -98 49 -168 110 -232
164 -174 447 -184 619 -23 49 46 91 110 80 121 -3 4 -32 -14 -65 -38 -82 -63
-139 -82 -243 -82 -72 1 -94 5 -142 28 -113 55 -186 171 -196 315 l-5 72 328
0 328 0 -6 65 c-10 105 -64 197 -148 250 -82 53 -233 70 -347 39z m208 -56
c58 -30 96 -80 115 -153 26 -101 39 -95 -235 -95 l-238 0 9 41 c22 96 81 177
154 210 57 26 140 25 195 -3z"/>
<path d="M3875 3935 c-22 -8 -79 -26 -127 -41 -49 -14 -88 -30 -88 -35 0 -4
18 -13 40 -19 70 -19 70 -17 70 -367 0 -310 0 -312 -23 -338 -12 -15 -38 -30
-56 -34 -19 -3 -36 -12 -39 -19 -3 -9 45 -12 208 -12 165 0 211 3 208 13 -3 6
-13 13 -24 15 -43 7 -76 26 -89 53 -12 22 -15 81 -15 297 l0 268 25 33 c41 56
91 86 144 86 46 0 61 -7 123 -56 59 -48 144 25 124 107 -9 35 -75 64 -146 64
-76 0 -148 -36 -216 -106 l-54 -57 0 82 c0 89 1 88 -65 66z"/>
<path d="M4804 3940 c-86 -18 -191 -86 -219 -141 -21 -39 -19 -92 4 -113 31
-28 82 -31 114 -6 23 18 27 29 27 71 0 28 7 64 16 80 32 62 148 87 229 50 76
-35 104 -91 105 -212 l0 -77 -163 -40 c-189 -48 -279 -85 -332 -137 -46 -47
-65 -90 -65 -150 0 -83 40 -148 115 -188 32 -18 57 -22 130 -22 109 0 161 18
251 86 l64 48 10 -39 c20 -75 102 -114 189 -91 48 13 111 54 111 73 0 10 -7 9
-67 -8 -16 -4 -29 1 -47 20 l-26 25 0 263 c0 362 -16 417 -144 482 -50 26 -68
30 -159 32 -56 2 -121 -1 -143 -6z m276 -539 l0 -149 -41 -36 c-106 -91 -278
-90 -331 2 -22 37 -23 113 -4 151 22 41 77 86 132 107 45 17 219 71 237 73 4
1 7 -66 7 -148z"/>
<path d="M8001 3940 c-319 -67 -467 -456 -272 -714 46 -62 141 -129 215 -152
80 -25 228 -30 306 -10 210 54 352 251 337 470 -12 183 -114 321 -286 387 -63
24 -225 35 -300 19z m214 -64 c126 -59 199 -204 199 -396 0 -240 -104 -380
-284 -380 -200 0 -321 183 -308 463 6 110 22 164 70 232 69 98 211 134 323 81z"/>
<path d="M8843 3906 c-68 -23 -123 -44 -123 -47 0 -3 18 -11 40 -18 73 -22 75
-29 78 -336 2 -148 1 -289 -3 -312 -8 -54 -32 -83 -74 -92 -19 -3 -36 -12 -39
-19 -3 -9 42 -12 193 -12 149 0 196 3 193 12 -3 7 -18 16 -36 20 -17 5 -40 20
-51 34 -20 26 -21 39 -21 316 l0 290 37 34 c58 53 115 76 188 77 79 1 132 -30
164 -95 20 -42 21 -60 21 -317 0 -313 -3 -325 -79 -341 -13 -3 -26 -11 -29
-17 -3 -10 39 -13 188 -13 145 0 191 3 188 12 -3 7 -18 16 -34 20 -17 4 -39
17 -50 29 -18 20 -19 42 -22 311 l-3 291 33 34 c92 96 234 117 318 47 63 -54
65 -62 68 -359 2 -243 1 -273 -15 -305 -12 -24 -28 -38 -50 -44 -18 -6 -35
-16 -37 -23 -4 -10 33 -13 184 -13 162 0 190 2 190 15 0 9 -9 15 -24 15 -14 0
-38 11 -53 24 l-28 24 -5 304 c-5 281 -7 306 -26 348 -29 62 -65 97 -130 127
-49 22 -66 25 -138 21 -98 -6 -163 -35 -241 -109 -29 -27 -54 -49 -57 -49 -3
0 -11 13 -18 30 -17 41 -78 94 -133 115 -35 13 -65 16 -124 13 -92 -6 -152
-32 -231 -103 l-52 -47 0 76 c0 66 -2 76 -17 74 -10 -1 -73 -20 -140 -42z"/>
<path d="M10687 3931 c-212 -70 -334 -280 -300 -516 33 -229 214 -375 452
-363 70 3 99 10 153 35 72 34 145 95 179 149 33 55 13 56 -55 4 -84 -63 -122
-75 -231 -75 -83 0 -95 3 -153 34 -73 40 -116 85 -148 156 -24 53 -50 186 -40
211 5 12 56 14 327 14 l322 0 -7 61 c-13 126 -88 234 -194 281 -69 30 -226 35
-305 9z m209 -50 c75 -34 124 -117 124 -210 l0 -41 -235 0 c-132 0 -235 4
-235 9 0 36 45 143 75 178 68 79 179 106 271 64z"/>
<path d="M2290 2627 c0 -28 73 -151 116 -194 54 -54 121 -83 191 -83 19 0 44
-5 56 -12 20 -10 21 -10 8 5 -7 10 -19 17 -25 17 -6 0 -24 7 -39 15 -15 8 -25
10 -22 5 8 -13 5 -13 -44 5 -22 8 -41 12 -41 9 0 -10 -57 26 -81 53 -15 15
-44 60 -64 98 -37 68 -55 96 -55 82z"/>
<path d="M3555 2550 c-9 -15 4 -30 23 -29 15 1 14 2 -1 6 -11 3 -16 11 -13 19
6 16 0 19 -9 4z"/>
<path d="M3627 2554 c-14 -15 -6 -34 14 -34 14 0 19 5 17 17 -3 18 -20 27 -31
17z m23 -14 c0 -5 -4 -10 -10 -10 -5 0 -10 5 -10 10 0 6 5 10 10 10 6 0 10 -4
10 -10z"/>
<path d="M10095 2528 c-27 -17 -74 -51 -102 -76 -60 -51 -69 -39 -23 29 30 43
30 43 3 12 -16 -18 -38 -55 -50 -83 l-21 -50 71 63 c80 70 149 117 172 117 8
0 15 5 15 10 0 16 -11 12 -65 -22z"/>
<path d="M2400 2546 c0 -3 21 -17 48 -34 26 -16 77 -55 115 -86 37 -31 67 -53
67 -48 0 13 -103 102 -155 134 -41 25 -75 40 -75 34z"/>
<path d="M4085 2538 c-8 -23 -10 -267 -2 -259 7 7 16 271 9 271 -1 0 -5 -6 -7
-12z"/>
<path d="M4272 2528 c2 -12 10 -23 18 -23 22 0 19 39 -3 43 -15 3 -18 -1 -15
-20z m28 2 c0 -5 -2 -10 -4 -10 -3 0 -8 5 -11 10 -3 6 -1 10 4 10 6 0 11 -4
11 -10z"/>
<path d="M4481 2533 c-1 -17 5 -23 19 -23 11 0 20 4 20 10 0 5 -6 7 -14 4 -8
-3 -16 2 -19 13 -4 14 -5 14 -6 -4z"/>
<path d="M5572 2550 c-2 -3 -4 -78 -5 -168 -2 -156 -1 -162 18 -162 13 0 16 3
8 8 -9 6 -13 55 -16 167 -1 88 -4 158 -5 155z"/>
<path d="M6249 2533 c-13 -16 -12 -17 4 -4 9 7 17 15 17 17 0 8 -8 3 -21 -13z"/>
<path d="M7955 2540 c-3 -5 -3 -14 0 -20 8 -12 32 -13 39 -1 3 5 -2 8 -12 7
-9 0 -16 5 -14 12 3 15 -4 16 -13 2z"/>
<path d="M8547 2529 c4 -13 8 -18 11 -10 2 7 -1 18 -6 23 -8 8 -9 4 -5 -13z"/>
<path d="M9017 2543 c-12 -11 -8 -31 8 -36 8 -4 17 -2 20 4 4 5 1 8 -7 7 -7
-2 -12 5 -12 15 2 19 1 20 -9 10z"/>
<path d="M8515 2531 c-6 -11 13 -26 22 -17 4 3 1 6 -6 6 -7 0 -9 5 -6 10 3 6
4 10 1 10 -3 0 -7 -4 -11 -9z"/>
<path d="M6259 2503 l-24 -28 28 24 c15 14 27 26 27 28 0 8 -8 1 -31 -24z"/>
<path d="M6192 2467 c-59 -60 -56 -73 14 -73 47 1 59 -3 75 -23 34 -41 17
-111 -27 -111 -8 0 -13 -3 -11 -7 3 -5 -33 -10 -80 -11 -48 -2 -95 -8 -107
-13 -13 -5 29 -7 109 -4 180 6 173 6 243 -1 92 -9 142 11 142 54 0 12 -4 9
-13 -8 -14 -27 -42 -38 -106 -39 -46 -1 -111 17 -111 31 0 4 -5 8 -11 8 -5 0
-7 -6 -3 -12 4 -7 4 -10 -1 -6 -4 4 -14 3 -22 -4 -7 -6 -16 -8 -19 -5 -3 3 7
13 23 22 21 12 28 24 27 43 -1 15 -3 32 -3 38 -1 7 -10 22 -20 35 -15 18 -32
25 -77 29 l-59 5 44 48 c54 59 50 62 -7 4z"/>
<path d="M5235 2491 c-8 -15 3 -31 21 -31 9 0 14 7 12 17 -4 20 -24 28 -33 14z
m25 -11 c0 -5 -2 -10 -4 -10 -3 0 -8 5 -11 10 -3 6 -1 10 4 10 6 0 11 -4 11
-10z"/>
<path d="M5305 2490 c-8 -14 3 -30 21 -30 8 0 14 5 14 10 0 6 -6 9 -12 8 -7
-2 -12 3 -10 10 3 15 -4 16 -13 2z"/>
<path d="M3533 2418 c-28 -30 -39 -90 -23 -129 21 -49 86 -74 124 -46 16 11
14 13 -16 12 -25 -1 -40 6 -60 29 -33 35 -38 24 -6 -13 22 -25 21 -25 -6 1
-39 36 -42 105 -6 143 13 14 21 25 18 25 -2 0 -14 -10 -25 -22z"/>
<path d="M3628 2433 c7 -3 16 -2 19 1 4 3 -2 6 -13 5 -11 0 -14 -3 -6 -6z"/>
<path d="M7371 2414 c-14 -18 -21 -41 -21 -70 0 -43 17 -94 31 -94 4 0 1 14
-8 31 -19 37 -11 113 14 141 9 10 13 18 10 18 -3 0 -15 -12 -26 -26z"/>
<path d="M7641 2421 c-25 -25 -36 -83 -25 -123 12 -43 56 -73 104 -73 47 0 54
-21 18 -56 -14 -13 -17 -20 -8 -17 21 6 45 52 37 71 -4 12 -18 17 -46 17 -28
0 -48 7 -68 24 -24 21 -28 31 -27 77 0 44 5 56 28 76 15 12 22 23 17 23 -6 0
-20 -9 -30 -19z"/>
<path d="M7978 2433 c-15 -4 -18 -15 -16 -76 l2 -72 3 64 c3 46 9 68 21 77 18
14 17 14 -10 7z"/>
<path d="M8470 2422 c-32 -26 -41 -121 -14 -142 16 -14 16 -13 6 7 -27 50 -7
114 43 141 16 9 17 11 4 12 -9 0 -27 -8 -39 -18z"/>
<path d="M3883 2422 c-7 -4 -12 -39 -14 -87 -1 -64 1 -79 12 -77 8 2 11 0 6
-4 -12 -13 -47 -18 -120 -18 -93 0 -109 17 -111 111 l-1 68 -40 3 c-34 2 -45
-2 -65 -25 l-25 -28 26 23 c19 17 36 23 60 20 l34 -3 1 -63 c1 -53 6 -69 27
-93 24 -27 30 -29 101 -29 41 0 87 5 101 12 19 9 28 9 37 0 7 -7 42 -12 84
-12 59 0 76 4 95 21 l24 21 -25 -15 c-35 -20 -141 -21 -166 -1 -18 15 -18 15
4 9 33 -9 27 0 -13 19 -34 17 -35 18 -35 76 0 46 4 61 18 69 9 6 13 10 7 11
-5 0 -15 -4 -22 -8z"/>
<path d="M4277 2423 c-4 -3 -7 -56 -7 -118 0 -75 -4 -116 -12 -125 -11 -12
-10 -12 5 -1 9 7 17 21 17 30 0 9 5 22 10 27 7 7 7 20 2 35 -4 13 -8 54 -8 91
1 38 1 68 0 68 0 0 -4 -3 -7 -7z"/>
<path d="M4488 2423 c-2 -5 -1 -33 3 -63 l6 -55 1 57 c1 34 7 58 15 61 7 3 6
6 -5 6 -9 1 -18 -2 -20 -6z"/>
<path d="M4769 2419 c-10 -6 -6 -9 13 -9 40 0 62 -38 55 -95 -4 -27 -3 -45 3
-45 16 0 12 103 -5 127 -17 24 -47 34 -66 22z"/>
<path d="M5879 2413 c-13 -16 -12 -17 4 -4 9 7 17 15 17 17 0 8 -8 3 -21 -13z"/>
<path d="M5935 2420 c-3 -6 4 -10 18 -10 34 0 43 -15 53 -85 l9 -60 3 49 c4
59 -12 102 -41 110 -30 8 -35 7 -42 -4z"/>
<path d="M6520 2358 c0 -76 -5 -91 -30 -101 -13 -4 -12 -6 1 -6 9 -1 21 5 27
12 12 14 21 167 10 167 -5 0 -8 -33 -8 -72z"/>
<path d="M6710 2424 c0 -3 11 -15 25 -26 32 -25 50 -89 34 -120 -11 -21 -11
-22 4 -9 35 28 13 112 -37 145 -15 9 -26 14 -26 10z"/>
<path d="M6909 2413 c-13 -16 -12 -17 4 -4 16 13 21 21 13 21 -2 0 -10 -8 -17
-17z"/>
<path d="M7666 2406 c-15 -14 -26 -30 -26 -37 0 -6 9 0 21 15 23 29 69 35 89
11 7 -9 10 -38 8 -80 -2 -54 -1 -63 10 -48 18 26 15 107 -5 131 -30 35 -68 38
-97 8z"/>
<path d="M8513 2420 c-23 -9 -49 -48 -39 -58 3 -3 6 0 6 6 0 19 30 42 55 42
13 0 31 -7 39 -16 19 -18 21 -86 4 -117 -10 -20 -10 -21 5 -8 12 9 17 29 17
66 0 46 -4 57 -26 74 -30 23 -30 23 -61 11z"/>
<path d="M8755 2418 c-2 -7 -5 -61 -7 -120 -3 -89 -7 -110 -23 -129 -11 -12
-15 -19 -8 -16 6 4 14 3 17 -2 6 -10 -26 -21 -61 -21 -12 0 -27 8 -33 18 -10
15 -10 15 -8 -3 3 -16 12 -21 49 -23 41 -3 49 0 73 28 15 18 26 43 25 58 -1
26 -1 26 -8 -4 -10 -41 -20 -56 -32 -48 -6 3 -4 11 5 17 12 9 16 39 18 135 3
118 2 136 -7 110z"/>
<path d="M8957 2412 c-27 -29 -32 -95 -11 -131 18 -30 34 -38 47 -24 4 3 2 12
-4 19 -6 7 -14 25 -19 41 -6 21 -8 23 -9 8 -1 -11 7 -31 16 -44 9 -14 11 -21
4 -16 -7 4 -19 22 -27 40 -14 34 -7 83 17 111 17 20 5 17 -14 -4z"/>
<path d="M9006 2413 c-14 -7 -26 -16 -26 -19 0 -2 9 0 19 6 29 15 77 12 91 -5
7 -8 18 -15 24 -15 17 1 -36 38 -60 43 -12 2 -33 -2 -48 -10z"/>
<path d="M5443 2355 c0 -38 2 -53 4 -32 2 20 2 52 0 70 -2 17 -4 1 -4 -38z"/>
<path d="M5736 2358 c-4 -37 -6 -82 -3 -100 2 -18 1 -43 -4 -56 -6 -14 -5 -21
1 -17 15 9 21 63 18 155 l-3 85 -9 -67z"/>
<path d="M6981 2413 c40 -6 57 -32 62 -93 l3 -55 2 66 c2 75 -7 90 -57 88 -29
-2 -31 -3 -10 -6z"/>
<path d="M7397 2402 c-10 -10 -17 -25 -17 -33 0 -8 6 -3 13 11 16 31 61 39 88
14 30 -27 26 -97 -7 -123 -14 -11 -33 -17 -42 -14 -14 4 -14 3 -3 -5 18 -13
65 9 75 33 11 30 6 90 -10 113 -19 28 -74 30 -97 4z"/>
<path d="M9965 2383 l-50 -35 52 5 c43 5 133 39 133 51 0 2 -17 -2 -37 -9 -21
-7 -51 -15 -68 -19 l-30 -7 30 25 c43 36 28 31 -30 -11z"/>
<path d="M4696 2384 c-3 -9 -6 -34 -6 -57 0 -24 -7 -48 -17 -60 -18 -19 -17
-19 5 -6 12 8 23 18 23 24 2 16 4 115 3 115 -1 0 -5 -7 -8 -16z"/>
<path d="M5107 2383 c-4 -3 -7 -29 -7 -57 1 -92 27 -106 193 -106 112 0 127 2
148 21 l24 20 -25 -14 c-22 -13 -155 -17 -282 -8 -37 2 -68 131 -35 144 6 3 7
6 1 6 -6 1 -14 -2 -17 -6z"/>
<path d="M5854 2356 c-13 -74 29 -124 109 -131 28 -2 45 0 42 6 -4 5 -24 9
-45 9 -21 0 -41 3 -44 8 -2 4 12 7 32 6 30 -1 31 0 7 3 -16 3 -39 12 -49 21
-15 13 -18 14 -11 2 5 -10 2 -9 -11 3 -14 13 -19 31 -18 62 1 54 -3 57 -12 11z"/>
<path d="M6786 2377 c3 -10 9 -15 12 -12 3 3 0 11 -7 18 -10 9 -11 8 -5 -6z"/>
<path d="M6888 2352 c-10 -41 11 -96 43 -112 12 -7 42 -12 66 -12 50 1 54 -10
21 -54 l-22 -29 28 25 c18 16 26 32 24 48 -3 22 -8 24 -56 26 -65 2 -89 27
-94 96 -3 45 -3 45 -10 12z"/>
<path d="M8231 2324 c-2 -94 7 -98 189 -102 142 -3 148 -3 173 20 14 13 29 34
32 48 6 21 3 19 -17 -10 -30 -44 -63 -50 -218 -44 -80 3 -119 9 -129 18 -7 8
-17 40 -21 73 l-7 58 -2 -61z"/>
<path d="M4301 2310 c-1 -43 14 -61 49 -59 22 2 22 2 3 6 -28 5 -40 21 -46 58
-4 29 -4 28 -6 -5z"/>
<path d="M6330 2306 c0 -19 3 -37 8 -40 4 -2 6 13 4 35 -5 48 -12 51 -12 5z"/>
<path d="M10220 2316 c0 -24 19 -29 94 -26 39 1 251 6 471 10 l400 6 -467 2
c-304 1 -468 6 -468 12 0 6 -7 10 -15 10 -8 0 -15 -6 -15 -14z"/>
<path d="M1350 2308 c0 -5 174 -8 388 -9 213 0 423 -4 467 -9 51 -5 84 -5 90
2 7 6 7 9 0 7 -5 -1 -17 1 -25 4 -22 9 -920 13 -920 5z"/>
<path d="M2750 2310 c-25 -4 32 -5 125 -2 94 3 172 6 174 8 8 7 -253 1 -299
-6z"/>
<path d="M4861 2290 c-8 -25 -15 -30 -30 -25 -11 3 -23 0 -27 -6 -5 -9 -2 -10
9 -6 10 3 17 2 17 -3 0 -15 -55 -21 -86 -10 -27 9 -28 9 -10 -5 42 -32 110
-11 132 41 8 20 13 38 11 41 -3 2 -10 -10 -16 -27z"/>
<path d="M9525 2314 c11 -2 92 -8 180 -12 178 -10 203 -18 226 -75 40 -100
113 -156 236 -182 78 -17 94 -18 73 -6 -8 5 -35 12 -60 16 -115 19 -182 65
-228 155 -17 33 -27 60 -23 60 17 0 134 -71 185 -111 l51 -41 -51 49 c-56 53
-167 118 -190 109 -7 -3 -14 -1 -14 5 0 6 -4 8 -9 5 -5 -4 -11 -1 -13 5 -5 15
-146 28 -283 27 -55 0 -91 -2 -80 -4z"/>
<path d="M6801 2291 c0 -14 -9 -34 -18 -45 -17 -20 -17 -20 6 0 15 14 21 29
18 45 l-4 24 -2 -24z"/>
<path d="M7515 2281 c-11 -36 -120 -58 -149 -30 -6 5 -15 9 -20 9 -6 0 -4 -4
4 -10 12 -8 12 -10 -3 -16 -10 -3 -23 -16 -29 -28 -11 -20 -10 -20 9 -3 14 12
37 17 87 17 58 0 70 3 91 25 14 13 25 31 25 40 0 21 -7 19 -15 -4z"/>
<path d="M7380 2286 c0 -2 8 -10 18 -17 15 -13 16 -12 3 4 -13 16 -21 21 -21
13z"/>
<path d="M2548 2252 c-76 -43 -78 -55 -2 -15 80 42 82 43 63 42 -8 -1 -35 -13
-61 -27z"/>
<path d="M2610 2249 c-19 -17 -28 -26 -19 -20 9 6 18 9 20 7 2 -2 12 7 22 20
24 32 18 30 -23 -7z"/>
<path d="M6944 2266 c11 -9 24 -16 30 -16 12 0 7 5 -24 19 -24 11 -24 11 -6
-3z"/>
<path d="M3828 2253 c7 -3 16 -2 19 1 4 3 -2 6 -13 5 -11 0 -14 -3 -6 -6z"/>
<path d="M6128 2253 c6 -2 18 -2 25 0 6 3 1 5 -13 5 -14 0 -19 -2 -12 -5z"/>
<path d="M8528 2253 c6 -2 18 -2 25 0 6 3 1 5 -13 5 -14 0 -19 -2 -12 -5z"/>
<path d="M9130 2244 c0 -14 -11 -15 -87 -9 -98 9 -93 9 -150 -1 -23 -3 -55 -2
-72 4 -17 6 -31 7 -31 3 0 -17 35 -21 191 -21 152 0 159 1 159 20 0 11 -2 20
-5 20 -3 0 -5 -7 -5 -16z"/>
<path d="M4300 2235 c-5 -6 -7 -15 -4 -18 4 -4 1 -20 -6 -36 -18 -45 -99 -68
-118 -35 -6 11 -11 13 -16 5 -13 -20 5 -31 50 -31 52 0 91 30 100 77 l6 28 73
-3 c40 -2 81 0 90 5 11 7 -1 9 -39 7 -31 -1 -71 2 -90 6 -24 5 -39 4 -46 -5z"/>
<path d="M4524 2235 c27 -21 136 -20 162 1 10 8 14 13 7 10 -22 -11 -134 -15
-161 -5 -25 9 -26 8 -8 -6z"/>
<path d="M7305 2236 c-16 -12 -20 -29 -23 -96 -4 -79 -4 -81 16 -69 13 8 18
19 14 33 -6 20 -6 20 -13 -4 -5 -17 -7 -6 -8 36 -1 48 4 67 20 88 23 29 22 32
-6 12z"/>
<path d="M6623 2228 c-2 -5 28 -8 68 -8 40 0 69 3 66 7 -10 9 -128 10 -134 1z"/>
<path d="M7815 2230 c-14 -6 2 -9 50 -9 39 0 77 4 85 9 19 12 -106 12 -135 0z"/>
<path d="M2430 2169 c-22 -18 -22 -19 -3 -10 12 6 25 16 28 21 9 15 3 12 -25
-11z"/>
<path d="M7039 2160 c-19 -21 -36 -30 -58 -30 -21 0 -30 4 -25 11 4 8 -1 9
-16 4 -15 -5 -20 -4 -16 4 4 6 2 11 -3 11 -17 0 -13 -27 5 -34 49 -19 112 2
134 45 14 26 10 24 -21 -11z"/>
<path d="M2557 2147 c-13 -18 -49 -45 -78 -60 -30 -15 -43 -25 -29 -21 38 9
95 49 120 83 29 41 19 40 -13 -2z"/>
<path d="M5976 2165 c-11 -8 -15 -15 -9 -15 6 0 16 7 23 15 16 19 11 19 -14 0z"/>
<path d="M7755 2155 c-35 -28 -92 -34 -102 -9 -5 12 -7 13 -14 3 -11 -18 8
-29 54 -29 45 0 72 13 87 40 14 26 11 25 -25 -5z"/>
<path d="M2350 2150 c-6 -11 -8 -20 -6 -20 3 0 10 9 16 20 6 11 8 20 6 20 -3
0 -10 -9 -16 -20z"/>
<path d="M5700 2160 c-9 -6 -10 -10 -3 -10 6 0 15 5 18 10 8 12 4 12 -15 0z"/>
<path d="M6005 2154 c-14 -10 -31 -13 -59 -8 -27 4 -36 3 -32 -5 5 -7 1 -9 -8
-5 -9 3 -13 10 -10 15 3 5 1 9 -4 9 -21 0 -20 -28 1 -34 47 -12 86 -6 114 19
31 27 30 33 -2 9z"/>
<path d="M3847 2144 c5 -13 3 -16 -10 -11 -9 3 -17 2 -17 -3 0 -6 9 -10 20
-10 21 0 28 24 10 35 -6 4 -7 -1 -3 -11z"/>
<path d="M3884 2149 c-3 -6 0 -17 7 -25 18 -17 44 -2 36 20 -7 18 -33 21 -43
5z m36 -3 c0 -3 -4 -8 -10 -11 -5 -3 -10 -1 -10 4 0 6 5 11 10 11 6 0 10 -2
10 -4z"/>
<path d="M5618 2148 c-13 -33 76 -40 113 -8 l24 20 -37 -15 c-51 -20 -86 -19
-90 3 -3 15 -4 16 -10 0z"/>
<path d="M6440 2140 c0 -13 7 -20 20 -20 13 0 20 7 20 20 0 13 -7 20 -20 20
-13 0 -20 -7 -20 -20z m30 0 c0 -5 -4 -10 -10 -10 -5 0 -10 5 -10 10 0 6 5 10
10 10 6 0 10 -4 10 -10z"/>
<path d="M6510 2140 c0 -13 7 -20 20 -20 14 0 20 6 19 23 -1 16 -2 18 -6 5 -2
-10 -9 -18 -15 -18 -5 0 -8 7 -4 15 3 8 1 15 -4 15 -6 0 -10 -9 -10 -20z"/>
<path d="M4198 2143 c7 -3 16 -2 19 1 4 3 -2 6 -13 5 -11 0 -14 -3 -6 -6z"/>
<path d="M7678 2143 c6 -2 18 -2 25 0 6 3 1 5 -13 5 -14 0 -19 -2 -12 -5z"/>
<path d="M2326 2103 c-6 -14 -5 -15 5 -6 7 7 10 15 7 18 -3 3 -9 -2 -12 -12z"/>
<path d="M2302 2055 c-14 -30 -6 -31 73 -10 57 14 42 18 -23 6 -39 -8 -42 -7
-37 10 9 27 0 23 -13 -6z"/>
</g>
</svg>
