<svg xmlns="http://www.w3.org/2000/svg" viewBox="0 0 800 600" width="800" height="600"><defs><linearGradient id="b" x1="75.0%" y1="6.7%" x2="25.0%" y2="93.3%"><stop offset="0" stop-color="#6D8A96"/><stop offset="1" stop-color="#4E6B77"/></linearGradient></defs><rect width="800" height="600" fill="url(#b)"/><line x1="0" y1="0" x2="0" y2="600" stroke="#4E6B77" stroke-width="2" opacity=".25"/><line x1="24" y1="0" x2="24" y2="600" stroke="#4E6B77" stroke-width="2" opacity=".25"/><line x1="48" y1="0" x2="48" y2="600" stroke="#4E6B77" stroke-width="2" opacity=".25"/><line x1="72" y1="0" x2="72" y2="600" stroke="#4E6B77" stroke-width="2" opacity=".25"/><line x1="96" y1="0" x2="96" y2="600" stroke="#4E6B77" stroke-width="2" opacity=".25"/><line x1="120" y1="0" x2="120" y2="600" stroke="#4E6B77" stroke-width="2" opacity=".25"/><line x1="144" y1="0" x2="144" y2="600" stroke="#4E6B77" stroke-width="2" opacity=".25"/><line x1="168" y1="0" x2="168" y2="600" stroke="#4E6B77" stroke-width="2" opacity=".25"/><line x1="192" y1="0" x2="192" y2="600" stroke="#4E6B77" stroke-width="2" opacity=".25"/><line x1="216" y1="0" x2="216" y2="600" stroke="#4E6B77" stroke-width="2" opacity=".25"/><line x1="240" y1="0" x2="240" y2="600" stroke="#4E6B77" stroke-width="2" opacity=".25"/><line x1="264" y1="0" x2="264" y2="600" stroke="#4E6B77" stroke-width="2" opacity=".25"/><line x1="288" y1="0" x2="288" y2="600" stroke="#4E6B77" stroke-width="2" opacity=".25"/><line x1="312" y1="0" x2="312" y2="600" stroke="#4E6B77" stroke-width="2" opacity=".25"/><line x1="336" y1="0" x2="336" y2="600" stroke="#4E6B77" stroke-width="2" opacity=".25"/><line x1="360" y1="0" x2="360" y2="600" stroke="#4E6B77" stroke-width="2" opacity=".25"/><line x1="384" y1="0" x2="384" y2="600" stroke="#4E6B77" stroke-width="2" opacity=".25"/><line x1="408" y1="0" x2="408" y2="600" stroke="#4E6B77" stroke-width="2" opacity=".25"/><line x1="432" y1="0" x2="432" y2="600" stroke="#4E6B77" stroke-width="2" opacity=".25"/><line x1="456" y1="0" x2="456" y2="600" stroke="#4E6B77" stroke-width="2" opacity=".25"/><line x1="480" y1="0" x2="480" y2="600" stroke="#4E6B77" stroke-width="2" opacity=".25"/><line x1="504" y1="0" x2="504" y2="600" stroke="#4E6B77" stroke-width="2" opacity=".25"/><line x1="528" y1="0" x2="528" y2="600" stroke="#4E6B77" stroke-width="2" opacity=".25"/><line x1="552" y1="0" x2="552" y2="600" stroke="#4E6B77" stroke-width="2" opacity=".25"/><line x1="576" y1="0" x2="576" y2="600" stroke="#4E6B77" stroke-width="2" opacity=".25"/><line x1="600" y1="0" x2="600" y2="600" stroke="#4E6B77" stroke-width="2" opacity=".25"/><line x1="624" y1="0" x2="624" y2="600" stroke="#4E6B77" stroke-width="2" opacity=".25"/><line x1="648" y1="0" x2="648" y2="600" stroke="#4E6B77" stroke-width="2" opacity=".25"/><line x1="672" y1="0" x2="672" y2="600" stroke="#4E6B77" stroke-width="2" opacity=".25"/><line x1="696" y1="0" x2="696" y2="600" stroke="#4E6B77" stroke-width="2" opacity=".25"/><line x1="720" y1="0" x2="720" y2="600" stroke="#4E6B77" stroke-width="2" opacity=".25"/><line x1="744" y1="0" x2="744" y2="600" stroke="#4E6B77" stroke-width="2" opacity=".25"/><line x1="768" y1="0" x2="768" y2="600" stroke="#4E6B77" stroke-width="2" opacity=".25"/><line x1="792" y1="0" x2="792" y2="600" stroke="#4E6B77" stroke-width="2" opacity=".25"/><line x1="0" y1="0" x2="800" y2="0" stroke="#FDFBF7" stroke-width="2" opacity=".12"/><line x1="0" y1="24" x2="800" y2="24" stroke="#FDFBF7" stroke-width="2" opacity=".12"/><line x1="0" y1="48" x2="800" y2="48" stroke="#FDFBF7" stroke-width="2" opacity=".12"/><line x1="0" y1="72" x2="800" y2="72" stroke="#FDFBF7" stroke-width="2" opacity=".12"/><line x1="0" y1="96" x2="800" y2="96" stroke="#FDFBF7" stroke-width="2" opacity=".12"/><line x1="0" y1="120" x2="800" y2="120" stroke="#FDFBF7" stroke-width="2" opacity=".12"/><line x1="0" y1="144" x2="800" y2="144" stroke="#FDFBF7" stroke-width="2" opacity=".12"/><line x1="0" y1="168" x2="800" y2="168" stroke="#FDFBF7" stroke-width="2" opacity=".12"/><line x1="0" y1="192" x2="800" y2="192" stroke="#FDFBF7" stroke-width="2" opacity=".12"/><line x1="0" y1="216" x2="800" y2="216" stroke="#FDFBF7" stroke-width="2" opacity=".12"/><line x1="0" y1="240" x2="800" y2="240" stroke="#FDFBF7" stroke-width="2" opacity=".12"/><line x1="0" y1="264" x2="800" y2="264" stroke="#FDFBF7" stroke-width="2" opacity=".12"/><line x1="0" y1="288" x2="800" y2="288" stroke="#FDFBF7" stroke-width="2" opacity=".12"/><line x1="0" y1="312" x2="800" y2="312" stroke="#FDFBF7" stroke-width="2" opacity=".12"/><line x1="0" y1="336" x2="800" y2="336" stroke="#FDFBF7" stroke-width="2" opacity=".12"/><line x1="0" y1="360" x2="800" y2="360" stroke="#FDFBF7" stroke-width="2" opacity=".12"/><line x1="0" y1="384" x2="800" y2="384" stroke="#FDFBF7" stroke-width="2" opacity=".12"/><line x1="0" y1="408" x2="800" y2="408" stroke="#FDFBF7" stroke-width="2" opacity=".12"/><line x1="0" y1="432" x2="800" y2="432" stroke="#FDFBF7" stroke-width="2" opacity=".12"/><line x1="0" y1="456" x2="800" y2="456" stroke="#FDFBF7" stroke-width="2" opacity=".12"/><line x1="0" y1="480" x2="800" y2="480" stroke="#FDFBF7" stroke-width="2" opacity=".12"/><line x1="0" y1="504" x2="800" y2="504" stroke="#FDFBF7" stroke-width="2" opacity=".12"/><line x1="0" y1="528" x2="800" y2="528" stroke="#FDFBF7" stroke-width="2" opacity=".12"/><line x1="0" y1="552" x2="800" y2="552" stroke="#FDFBF7" stroke-width="2" opacity=".12"/><line x1="0" y1="576" x2="800" y2="576" stroke="#FDFBF7" stroke-width="2" opacity=".12"/><line x1="0" y1="600" x2="800" y2="600" stroke="#FDFBF7" stroke-width="2" opacity=".12"/></svg>