<svg xmlns="http://www.w3.org/2000/svg" viewBox="0 0 800 600" width="800" height="600"><defs><linearGradient id="b" x1="50.0%" y1="0.0%" x2="50.0%" y2="100.0%"><stop offset="0" stop-color="#C9A87C"/><stop offset="1" stop-color="#B08D5B"/></linearGradient></defs><rect width="800" height="600" fill="url(#b)"/><path d="M0 70 q200 18 400 0 t400 0" stroke="#B08D5B" stroke-width="3" fill="none" opacity=".5"/><path d="M0 130 q200 -18 400 0 t400 0" stroke="#B08D5B" stroke-width="3" fill="none" opacity=".5"/><path d="M0 190 q200 18 400 0 t400 0" stroke="#B08D5B" stroke-width="3" fill="none" opacity=".5"/><path d="M0 250 q200 -18 400 0 t400 0" stroke="#B08D5B" stroke-width="3" fill="none" opacity=".5"/><path d="M0 310 q200 18 400 0 t400 0" stroke="#B08D5B" stroke-width="3" fill="none" opacity=".5"/><path d="M0 370 q200 -18 400 0 t400 0" stroke="#B08D5B" stroke-width="3" fill="none" opacity=".5"/><path d="M0 430 q200 18 400 0 t400 0" stroke="#B08D5B" stroke-width="3" fill="none" opacity=".5"/><path d="M0 490 q200 -18 400 0 t400 0" stroke="#B08D5B" stroke-width="3" fill="none" opacity=".5"/><path d="M0 550 q200 18 400 0 t400 0" stroke="#B08D5B" stroke-width="3" fill="none" opacity=".5"/><rect x="0" y="0" width="800" height="600" fill="none"/></svg>